<?xml version="1.0" encoding="utf-8"?>
<!-- Generator: Fusion 360, Shaper Origin Export Add-In, Version 1.9.0  -->
<svg xmlns="http://www.w3.org/2000/svg" xmlns:xlink="http://www.w3.org/1999/xlink" xmlns:shaper="http://www.shapertools.com/namespaces/shaper" shaper:fusionaddin="version:1.9.0" width="25.30875cm" height="9.3175cm" version="1.1" x="0cm" y="0cm" viewBox="0 0 25.30875 9.3175" enable-background="new 0 0 25.30875 9.3175" xml:space="preserve"><path d="M3.2391679,4.02375 L3.2391679,4.65875 -1.7608321,4.65875 -1.7608321,4.02375 -5.2608321,4.02375 -5.2608321,4.65875 -10.2608321,4.65875 -10.2608321,4.02375 -12.654375,4.02375 -12.654375,3.40478 -12.154375,3.40478 -12.154375,0.90478 -12.654375,0.90478 -12.654375,-1.59522 -12.154375,-1.59522 -12.154375,-4.02375 -8.0228896,-4.02375 -8.0228896,-4.34125 -12.654375,-4.34125 -12.654375,-4.65875 12.654375,-4.65875 12.654375,4.02375 11.7391679,4.02375 11.7391679,4.65875 6.7391679,4.65875 6.7391679,4.02375 3.2391679,4.02375z" transform="matrix(1,0,0,-1,12.654375,4.65875)" fill="rgb(0,0,0)" stroke-linecap="round" stroke-linejoin="round" /><path d="M-6.967193,-4.02375 L-6.967193,-3.70625 -3.967193,-3.70625 -3.967193,-4.02375 -6.967193,-4.02375z" transform="matrix(1,0,0,-1,12.654375,4.65875)" fill="rgb(255,255,255)" stroke="rgb(0,0,0)" stroke-width="0.0010cm" stroke-linecap="round" stroke-linejoin="round" /><path d="M5.232807,-4.02375 L2.232807,-4.02375 2.232807,-3.70625 5.232807,-3.70625 5.232807,-4.02375z" transform="matrix(1,0,0,-1,12.654375,4.65875)" fill="rgb(255,255,255)" stroke="rgb(0,0,0)" stroke-width="0.0010cm" stroke-linecap="round" stroke-linejoin="round" /><path d="M-3.0228896,-4.02375 L1.9771104,-4.02375 1.9771104,-4.34125 -3.0228896,-4.34125 -3.0228896,-4.02375z" transform="matrix(1,0,0,-1,12.654375,4.65875)" fill="rgb(255,255,255)" stroke="rgb(0,0,0)" stroke-width="0.0010cm" stroke-linecap="round" stroke-linejoin="round" /></svg>