<?xml version="1.0" encoding="utf-8"?>
<!-- Generator: Fusion 360, Shaper Origin Export Add-In, Version 1.9.0  -->
<svg xmlns="http://www.w3.org/2000/svg" xmlns:xlink="http://www.w3.org/1999/xlink" xmlns:shaper="http://www.shapertools.com/namespaces/shaper" shaper:fusionaddin="version:1.9.0" width="17.69125cm" height="9.3175cm" version="1.1" x="0cm" y="0cm" viewBox="0 0 17.69125 9.3175" enable-background="new 0 0 17.69125 9.3175" xml:space="preserve"><path d="M8.845625,-4.65875 L8.845625,-4.34125 5.4771104,-4.34125 5.4771104,-4.02375 8.845625,-4.02375 8.845625,4.65875 6.969004,4.65875 6.969004,4.02375 0.469004,4.02375 0.469004,4.65875 -1.530996,4.65875 -1.530996,4.02375 -8.845625,4.02375 -8.845625,-4.65875 8.845625,-4.65875z" transform="matrix(1,0,0,-1,8.845625,4.65875)" fill="rgb(0,0,0)" stroke-linecap="round" stroke-linejoin="round" /><path d="M0.4771104,-4.34125 L-4.5228896,-4.34125 -4.5228896,-4.02375 0.4771104,-4.02375 0.4771104,-4.34125z" transform="matrix(1,0,0,-1,8.845625,4.65875)" fill="rgb(255,255,255)" stroke="rgb(0,0,0)" stroke-width="0.0010cm" stroke-linecap="round" stroke-linejoin="round" /><path d="M-5.067193,-4.02375 L-8.067193,-4.02375 -8.067193,-3.70625 -5.067193,-3.70625 -5.067193,-4.02375z" transform="matrix(1,0,0,-1,8.845625,4.65875)" fill="rgb(255,255,255)" stroke="rgb(0,0,0)" stroke-width="0.0010cm" stroke-linecap="round" stroke-linejoin="round" /><path d="M4.432807,-4.02375 L1.432807,-4.02375 1.432807,-3.70625 4.432807,-3.70625 4.432807,-4.02375z" transform="matrix(1,0,0,-1,8.845625,4.65875)" fill="rgb(255,255,255)" stroke="rgb(0,0,0)" stroke-width="0.0010cm" stroke-linecap="round" stroke-linejoin="round" /></svg>